<?xml version="1.0" encoding="utf-8"?>
<!-- Generator: Adobe Illustrator 19.2.1, SVG Export Plug-In . SVG Version: 6.00 Build 0)  -->
<svg version="1.1" id="Layer_1" xmlns="http://www.w3.org/2000/svg" xmlns:xlink="http://www.w3.org/1999/xlink" x="0px" y="0px"
	 viewBox="0 0 276 110" style="enable-background:new 0 0 276 110;" xml:space="preserve">
<style type="text/css">
	.st0{fill:#434A54;}
</style>
<g>
	<path class="st0" d="M268.1,68.4L240,0h-2.5l-29.7,68.3h-0.1V3.9h8.7V2.6h-24.2l-16.3,46.9h-0.2L159.1,2.6h-42.2l-16.6,46.9h-0.2
		L83.9,2.6H59.6v1.3h8.7v64.4h-0.1L38.5,0H36L7.9,68.4H0v1.3h17.8v-1.3H9.4l10.5-25.2h22.6l10.9,25.2h-8.8v1.3h31.6v0h2.2v-1.3h-8.7
		V3.9H70l23.3,65.7h1.5l23.2-65.7h0.2v64.4h-8.6v1.3h56.9v-1.3h-8.6V3.9h0.2l23.2,65.7h1.5L206,3.9h0.2v64.4h-8.7v1.3h2.2v0h31.6
		v-1.3h-8.8l10.9-25.2h22.6l10.5,25.2h-8.4v1.3H276v-1.3H268.1z M20.3,41.8l10.6-25.7L42,41.8H20.3z M144.2,68.3h-12.4V3.9h12.4
		V68.3z M234,41.8l11.1-25.7l10.5,25.7H234z"/>
	<g>
		<path class="st0" d="M84.8,103.9c0,0.4,0,0.4,0.4,0.4h1.2c0.8,0,1-0.1,1.1-0.8l0.1-0.4c0.1-0.1,0.5-0.1,0.6,0c0,0.5,0,1,0,1.6
			c0,0.6,0,1.1,0,1.6c-0.1,0.1-0.5,0.1-0.6,0l-0.1-0.4c-0.2-0.7-0.3-0.8-1.1-0.8h-1.2c-0.4,0-0.4,0-0.4,0.5v2c0,1.4,0.1,1.5,0.8,1.6
			l0.6,0.1c0.1,0.1,0.1,0.4,0,0.5c-0.9,0-1.7,0-2.4,0c-0.7,0-1.4,0-2.3,0c-0.1-0.1-0.1-0.4,0-0.5l0.5-0.1c0.7-0.1,0.8-0.2,0.8-1.6
			V102c0-1.4-0.1-1.5-0.8-1.6l-0.3,0c-0.1-0.1-0.1-0.5,0-0.5c0.6,0,1.4,0,2.1,0h3.1c1,0,1.8,0,2,0c0,0.3,0,1.3,0,2.3
			c-0.1,0.2-0.4,0.2-0.6,0.1c-0.2-0.6-0.3-1-0.4-1.2c-0.3-0.3-0.7-0.5-1.5-0.5h-1.2c-0.5,0-0.5,0-0.5,0.6V103.9z"/>
		<path class="st0" d="M93.2,102c0-1.4-0.1-1.5-0.8-1.6l-0.4-0.1c-0.1-0.1-0.1-0.4,0-0.5c0.7,0,1.5,0,2.2,0c0.7,0,1.5,0,2.2,0
			c0.1,0.1,0.1,0.4,0,0.5l-0.4,0.1c-0.7,0.1-0.8,0.2-0.8,1.6v3.5c0,1.7,0.2,3.7,2.5,3.7c1.9,0,2.5-1.7,2.5-3.7v-1.8
			c0-1.2-0.1-2.3-0.2-2.7c-0.1-0.3-0.5-0.4-0.9-0.5l-0.4-0.1c-0.1-0.1-0.1-0.4,0-0.5c0.8,0,1.4,0,2,0c0.6,0,1.1,0,1.7,0
			c0.1,0.1,0.1,0.4,0,0.5l-0.3,0.1c-0.4,0.1-0.7,0.2-0.8,0.5c-0.2,0.4-0.2,1.5-0.2,2.7v1.7c0,1.4-0.1,2.7-1,3.6
			c-0.7,0.7-1.7,1.1-3,1.1c-1.1,0-2.2-0.2-3-0.8c-0.8-0.6-1.1-1.8-1.1-3.4V102z"/>
		<path class="st0" d="M114.5,107.2c0,1,0,1.9,0,2.4c-0.1,0.2-0.5,0.3-0.9,0.3c0,0-0.5-0.8-1.2-1.6l-3.5-4.3
			c-0.9-1.1-1.4-1.7-1.6-1.9c-0.1,0.1-0.1,0.4-0.1,1v2.9c0,1.2,0.1,2.3,0.2,2.7c0.1,0.3,0.5,0.4,0.9,0.5l0.4,0.1
			c0.1,0.1,0.1,0.4,0,0.5c-0.8,0-1.4,0-2,0c-0.6,0-1.1,0-1.7,0c-0.1-0.1-0.1-0.4,0-0.5l0.2,0c0.4-0.1,0.7-0.2,0.8-0.5
			c0.2-0.4,0.2-1.5,0.2-2.7v-3.8c0-0.8,0-1.1-0.1-1.3c-0.1-0.3-0.3-0.4-0.9-0.5l-0.4-0.1c-0.1-0.1-0.1-0.5,0.1-0.5
			c0.7,0,1.5,0,2.1,0c0.5,0,0.9,0,1.3,0c0.2,0.7,1.1,1.8,2.5,3.4l1.3,1.5c0.7,0.8,1.1,1.3,1.4,1.6c0.1-0.1,0.1-0.4,0.1-0.7v-2.1
			c0-1.2-0.1-2.3-0.2-2.7c-0.1-0.3-0.5-0.4-0.9-0.5l-0.4-0.1c-0.1-0.1-0.1-0.4,0-0.5c0.8,0,1.4,0,2,0c0.5,0,1.1,0,1.7,0
			c0.1,0.1,0.1,0.4,0,0.5l-0.3,0c-0.4,0.1-0.7,0.2-0.8,0.5c-0.2,0.4-0.2,1.5-0.2,2.7V107.2z"/>
		<path class="st0" d="M120.6,102.3c0-1.4,0-1.7-0.7-1.8l-0.3,0c-0.2-0.1-0.2-0.5,0-0.5c1.3-0.1,2.4-0.1,4-0.1
			c1.2,0,2.5,0.1,3.5,0.5c2,0.7,3,2.5,3,4.3c0,2-1,3.6-2.7,4.5c-1,0.5-2.2,0.7-3.8,0.7c-0.7,0-1.5-0.1-2-0.1c-0.7,0-1.5,0-2.3,0
			c-0.1-0.1-0.1-0.4,0-0.5l0.5-0.1c0.7-0.1,0.8-0.2,0.8-1.6V102.3z M122.7,107.1c0,0.8,0,1.4,0.3,1.7c0.3,0.3,0.7,0.4,1.2,0.4
			c2.6,0,3.5-2.3,3.5-4.3c0-2.7-1.4-4.3-4.1-4.3c-0.4,0-0.7,0.1-0.8,0.2c-0.1,0.1-0.1,0.4-0.1,0.9V107.1z"/>
		<path class="st0" d="M136.5,106.4c-0.4,0-0.4,0-0.5,0.3l-0.5,1.7c-0.1,0.3-0.1,0.4-0.1,0.5c0,0.1,0.1,0.2,0.5,0.3l0.5,0.1
			c0.1,0.1,0.1,0.4,0,0.5c-0.5,0-1.1,0-1.8,0c-0.5,0-0.9,0-1.5,0c-0.2-0.1-0.1-0.4,0-0.5l0.4,0c0.4,0,0.7-0.2,0.9-0.7
			c0.3-0.6,0.5-1.3,0.9-2.4l1.4-3.7c0.3-0.9,0.6-1.5,0.6-1.9c0.7-0.2,1.3-0.9,1.3-0.9c0.2,0,0.3,0.1,0.3,0.3c0.1,0.4,0.3,1,0.7,2.1
			l2,5.9c0.3,0.9,0.4,1.2,1,1.3l0.6,0.1c0.1,0.1,0.1,0.4,0,0.5c-0.7,0-1.5,0-2.3,0c-0.7,0-1.3,0-2,0c-0.2-0.1-0.2-0.4,0-0.5l0.5-0.1
			c0.3-0.1,0.4-0.2,0.4-0.3c0-0.1-0.1-0.5-0.3-1l-0.4-1.3c-0.1-0.2-0.2-0.3-0.7-0.3H136.5z M138.1,105.6c0.3,0,0.4,0,0.3-0.4
			l-0.4-1.2c-0.2-0.6-0.4-1.3-0.5-1.6c-0.1,0.3-0.4,1-0.6,1.6l-0.4,1.1c-0.1,0.4-0.1,0.5,0.3,0.5H138.1z"/>
		<path class="st0" d="M154.7,100c0,0.3,0,1.5,0.2,2.3c-0.1,0.2-0.5,0.2-0.6,0.1c-0.4-1.4-1.4-2.1-2.8-2.1c-1.7,0-3.4,1.4-3.4,4.4
			c0,3,1.7,4.6,3.5,4.6c1.8,0,2.7-1.3,3.1-2.3c0.1-0.1,0.5-0.1,0.6,0.1c-0.1,1.1-0.4,2-0.6,2.4c-0.8,0.2-1.9,0.6-3,0.6
			c-1.5,0-3-0.3-4-1.1c-1.1-0.8-1.9-2.1-1.9-3.9c0-1.8,0.8-3.1,1.8-4c1.1-0.9,2.6-1.3,4.2-1.3C153.1,99.6,154.2,100,154.7,100"/>
		<path class="st0" d="M161.9,107.6c0,1.4,0.1,1.5,0.8,1.6l0.4,0.1c0.1,0.1,0.1,0.4,0,0.5c-0.8,0-1.5,0-2.3,0c-0.7,0-1.5,0-2.3,0
			c-0.1-0.1-0.1-0.4,0-0.5l0.4-0.1c0.7-0.1,0.8-0.2,0.8-1.6v-5.5c0-1.4-0.1-1.5-0.8-1.6l-0.4-0.1c-0.1-0.1-0.1-0.4,0-0.5
			c0.8,0,1.6,0,2.3,0c0.7,0,1.5,0,2.3,0c0.1,0.1,0.1,0.4,0,0.5l-0.4,0.1c-0.7,0.1-0.8,0.2-0.8,1.6V107.6z"/>
		<path class="st0" d="M177.5,104.8c0,3.3-2.2,5.2-5.4,5.2c-3,0-5.2-2-5.2-5.1c0-3,2.2-5.3,5.3-5.3
			C175.3,99.6,177.5,101.7,177.5,104.8 M172.1,100.3c-1.8,0-2.8,1.7-2.8,4.2c0,1.8,0.6,4.8,3.1,4.8c2,0,2.7-1.9,2.7-4.3
			C175.1,102.4,174,100.3,172.1,100.3 M173.5,97c0.2-0.2,0.4-0.3,0.5-0.3c0.1,0,0.3,0.1,0.5,0.5c0.2,0.3,0.2,0.5,0.1,0.6
			c0,0.1-0.2,0.3-0.5,0.4l-2.9,1c-0.1,0-0.2-0.2-0.2-0.4L173.5,97z"/>
		<path class="st0" d="M190.8,107.2c0,1,0,1.9,0,2.4c-0.1,0.2-0.5,0.3-0.9,0.3c0,0-0.5-0.8-1.2-1.6l-3.5-4.3
			c-0.9-1.1-1.4-1.7-1.6-1.9c-0.1,0.1-0.1,0.4-0.1,1v2.9c0,1.2,0.1,2.3,0.2,2.7c0.1,0.3,0.5,0.4,0.9,0.5l0.4,0.1
			c0.1,0.1,0.1,0.4,0,0.5c-0.8,0-1.4,0-2,0c-0.6,0-1.1,0-1.7,0c-0.1-0.1-0.1-0.4,0-0.5l0.3,0c0.4-0.1,0.7-0.2,0.8-0.5
			c0.2-0.4,0.2-1.5,0.2-2.7v-3.8c0-0.8,0-1.1-0.1-1.3c-0.1-0.3-0.3-0.4-0.8-0.5l-0.4-0.1c-0.1-0.1-0.1-0.5,0.1-0.5
			c0.7,0,1.4,0,2.1,0c0.5,0,0.9,0,1.3,0c0.2,0.7,1.1,1.8,2.5,3.4l1.3,1.5c0.7,0.8,1.1,1.3,1.4,1.6c0.1-0.1,0.1-0.4,0.1-0.7v-2.1
			c0-1.2-0.1-2.3-0.2-2.7c-0.1-0.3-0.5-0.4-0.9-0.5l-0.4-0.1c-0.1-0.1-0.1-0.4,0-0.5c0.8,0,1.4,0,2,0c0.6,0,1.1,0,1.7,0
			c0.1,0.1,0.1,0.4,0,0.5l-0.3,0c-0.4,0.1-0.7,0.2-0.8,0.5c-0.2,0.4-0.2,1.5-0.2,2.7V107.2z"/>
	</g>
</g>
</svg>
